<svg xmlns="http://www.w3.org/2000/svg" width="200" height="100" viewBox="0 0 200 100"><rect width="100%" height="100%" fill="#DDDDDD"/><path fill="#999999" d="M44.14 57.09h3.68q1.01 0 1.7-.25.68-.24 1.1-.65.41-.4.59-.94.18-.54.18-1.15 0-.63-.2-1.14-.2-.51-.63-.86-.44-.36-1.12-.55-.68-.19-1.64-.19h-3.66v5.73Zm3.09-13.88h-3.09v5.64h2.89q1.87 0 2.82-.67.95-.68.95-2.15 0-1.53-.87-2.18-.86-.64-2.7-.64Zm-6.72-2.81h6.72q1.92 0 3.29.36 1.36.37 2.23 1.04.87.68 1.28 1.64.4.95.4 2.16 0 .69-.2 1.31-.2.63-.63 1.18-.43.54-1.08.99-.65.45-1.56.76 4.02.9 4.02 4.34 0 1.24-.47 2.3-.47 1.05-1.38 1.81-.9.77-2.22 1.2-1.33.43-3.03.43h-7.37V40.4Zm19.89 11h6.29q0-.65-.18-1.22-.19-.57-.55-1.01-.37-.43-.93-.68-.56-.25-1.3-.25-1.44 0-2.27.83-.83.82-1.06 2.33Zm8.5 2.01h-8.57q.08 1.07.38 1.85.29.77.78 1.28.49.5 1.15.75.67.25 1.48.25.81 0 1.4-.18.59-.19 1.03-.42.44-.23.77-.42.33-.19.64-.19.42 0 .62.31l.96 1.21q-.56.65-1.25 1.09-.68.44-1.43.7-.75.27-1.53.37-.77.11-1.5.11-1.45 0-2.69-.48t-2.16-1.41q-.92-.94-1.44-2.33-.53-1.38-.53-3.2 0-1.42.46-2.67t1.31-2.17q.86-.93 2.1-1.47 1.23-.54 2.78-.54 1.31 0 2.42.42 1.11.42 1.9 1.22.8.81 1.25 1.97.46 1.17.46 2.67 0 .76-.17 1.02-.16.26-.62.26Zm12.49-5.84-.76 1.2q-.13.21-.28.3-.15.09-.38.09-.24 0-.52-.13-.27-.14-.64-.31-.36-.17-.83-.3-.46-.14-1.1-.14-.98 0-1.55.42-.56.42-.56 1.09 0 .45.29.75.3.31.77.54.48.23 1.09.41.61.18 1.24.4.62.21 1.23.49t1.09.7q.48.43.77 1.02.29.6.29 1.43 0 1-.36 1.85-.36.84-1.06 1.45-.7.62-1.73.96-1.04.35-2.39.35-.71 0-1.39-.13-.69-.13-1.31-.36-.63-.23-1.16-.54-.54-.31-.94-.67l.77-1.27q.15-.23.35-.35.2-.13.51-.13t.59.18q.27.17.64.38.36.2.86.38.49.17 1.25.17.59 0 1.01-.14.43-.14.71-.37.27-.23.4-.54.13-.3.13-.62 0-.49-.29-.8-.29-.31-.77-.54-.48-.23-1.09-.41-.62-.18-1.26-.4-.64-.22-1.25-.51-.62-.29-1.1-.73-.48-.45-.77-1.1-.29-.64-.29-1.56 0-.85.34-1.62.34-.77.99-1.34.66-.58 1.64-.92.97-.35 2.26-.35 1.43 0 2.6.48 1.18.47 1.96 1.24Zm7.28 12.57q-1.81 0-2.78-1.02-.96-1.02-.96-2.82v-7.73h-1.42q-.27 0-.46-.18-.19-.17-.19-.53v-1.32l2.23-.36.7-3.78q.07-.27.26-.42.19-.15.48-.15h1.73v4.36h3.7v2.38h-3.7v7.5q0 .65.32 1.02.32.36.87.36.31 0 .52-.07.21-.08.36-.16.16-.08.28-.16.12-.07.24-.07.15 0 .25.07.09.08.2.23l1 1.62q-.73.61-1.68.92-.94.31-1.95.31Zm17.25-17.9-.91 1.71q-.16.28-.34.41-.18.13-.45.13-.29 0-.62-.21t-.79-.47q-.45-.25-1.07-.46-.61-.21-1.45-.21-.76 0-1.32.18-.57.18-.96.51-.38.32-.57.77-.19.46-.19 1 0 .69.39 1.14.38.46 1.02.79.63.32 1.44.58.81.25 1.66.54.85.29 1.66.68.81.38 1.45.97.63.59 1.02 1.44.38.85.38 2.06 0 1.33-.45 2.48-.45 1.16-1.33 2.01-.87.86-2.12 1.35-1.26.5-2.88.5-.93 0-1.83-.19-.91-.18-1.74-.52-.83-.33-1.56-.81-.73-.47-1.29-1.05l1.06-1.74q.14-.19.35-.32.22-.13.46-.13.34 0 .73.28.39.28.93.61.54.34 1.27.62.72.28 1.73.28 1.55 0 2.4-.74.85-.74.85-2.11 0-.77-.38-1.26-.38-.48-1.02-.81-.63-.34-1.44-.56-.81-.23-1.65-.5-.84-.27-1.65-.65-.81-.38-1.44-.99-.64-.61-1.02-1.52-.39-.91-.39-2.24 0-1.07.43-2.08.42-1.02 1.23-1.8t2-1.25q1.19-.48 2.73-.48 1.73 0 3.19.54 1.45.54 2.48 1.52Zm5.62 9.16h6.29q0-.65-.19-1.22-.18-.57-.54-1.01-.37-.43-.93-.68-.56-.25-1.3-.25-1.44 0-2.28.83-.83.82-1.05 2.33Zm8.5 2.01h-8.57q.08 1.07.38 1.85.29.77.78 1.28.48.5 1.15.75.67.25 1.48.25.81 0 1.4-.18.59-.19 1.02-.42.44-.23.77-.42.33-.19.65-.19.41 0 .62.31l.95 1.21q-.55.65-1.24 1.09-.69.44-1.44.7-.74.27-1.52.37-.78.11-1.51.11-1.44 0-2.68-.48-1.24-.48-2.16-1.41-.92-.94-1.45-2.33-.52-1.38-.52-3.2 0-1.42.46-2.67.45-1.25 1.31-2.17.86-.93 2.09-1.47 1.24-.54 2.79-.54 1.31 0 2.42.42 1.11.42 1.9 1.22.8.81 1.25 1.97.45 1.17.45 2.67 0 .76-.16 1.02t-.62.26Zm3.32-13.55h3.34v20.06h-3.34V39.86Zm6.71 0h3.34v20.06h-3.34V39.86Zm9.3 11.54h6.29q0-.65-.18-1.22t-.55-1.01q-.36-.43-.92-.68-.56-.25-1.3-.25-1.45 0-2.28.83-.83.82-1.06 2.33Zm8.51 2.01h-8.58q.09 1.07.38 1.85.3.77.79 1.28.48.5 1.15.75.67.25 1.48.25.81 0 1.4-.18.58-.19 1.02-.42.44-.23.77-.42.33-.19.64-.19.42 0 .62.31l.96 1.21q-.55.65-1.24 1.09-.69.44-1.44.7-.75.27-1.52.37-.78.11-1.51.11-1.44 0-2.69-.48-1.24-.48-2.16-1.41-.91-.94-1.44-2.33-.53-1.38-.53-3.2 0-1.42.46-2.67t1.32-2.17q.86-.93 2.09-1.47 1.24-.54 2.79-.54 1.31 0 2.42.42 1.1.42 1.9 1.22.8.81 1.25 1.97.45 1.17.45 2.67 0 .76-.16 1.02t-.62.26Zm6.22-6.5.2 1.56q.65-1.24 1.54-1.95t2.11-.71q.96 0 1.54.42l-.22 2.5q-.07.24-.19.34-.13.1-.35.1-.2 0-.6-.06-.4-.07-.78-.07-.55 0-.98.16-.43.16-.78.47-.34.3-.61.73-.26.43-.49.99v8.53h-3.33V46.07h1.96q.51 0 .71.18.2.18.27.66Z"/></svg>